<?xml version="1.0" encoding="utf-8"?>
<!-- Generator: Adobe Illustrator 23.0.2, SVG Export Plug-In . SVG Version: 6.00 Build 0)  -->
<svg version="1.1" id="Слой_1" xmlns="http://www.w3.org/2000/svg" xmlns:xlink="http://www.w3.org/1999/xlink" x="0px" y="0px"
	 viewBox="0 0 612 792" style="enable-background:new 0 0 612 792;" xml:space="preserve">
<g>
	<path d="M349.44,372c-0.25,0.33-0.63,0.62-0.72,0.99c-1.47,5.89-2.9,11.78-4.36,17.67c-0.59,2.36-1.23,4.71-1.83,7.07
		c-0.25,0.99-0.88,1.61-1.84,1.86c-0.73,0.19-1.49,0.31-2.24,0.41c-7.24,1.01-14.48,2.04-21.73,3.01
		c-8.59,1.16-17.19,2.28-25.79,3.4c-0.55,0.07-1.12,0.04-1.67,0.13c-0.24,0.04-0.61,0.23-0.64,0.41c-0.05,0.26,0.06,0.71,0.25,0.82
		c1.38,0.78,2.74,1.6,4.21,2.18c0.78,0.31,1.74,0.22,2.61,0.22c13.23,0,26.47-0.02,39.7,0c0.68,0,1.41,0.24,2.02,0.56
		c0.73,0.39,1.38,1.13,0.96,1.96c-0.33,0.67-1.08,1.17-1.73,1.62c-0.28,0.2-0.77,0.13-1.17,0.13c-13.35,0-26.71-0.03-40.06,0
		c-5.1,0.01-8.98-2.14-11.8-6.33c-1.53-2.27-1.76-4.94-2.31-7.5c-0.95-4.49-1.83-9-2.72-13.51c-0.81-4.15-1.58-8.32-2.39-12.47
		c-0.86-4.39-1.77-8.77-2.64-13.16c-0.19-0.97-0.75-1.28-1.7-1.26c-2.24,0.06-4.48,0.01-6.72,0.06c-3.01,0.07-3.44-1.45-2.34-4.14
		c4.48,0,8.96,0,13.44,0c0.37,0.83,0.88,1.62,1.07,2.49c0.48,2.22,0.87,4.46,1.2,6.71c0.17,1.17,0.7,1.63,1.89,1.63
		c19.13-0.03,38.27-0.07,57.4-0.01c3.88,0.01,7.79-0.53,11.64,0.46C349.44,368.96,349.44,370.48,349.44,372z M312.19,370.75
		c-9.92,0-19.84,0-29.76,0c-2.64,0-2.64-0.02-2.13,2.45c0.01,0.04,0.01,0.08,0.02,0.12c0.96,4.86,1.92,9.72,2.88,14.58
		c0.45,2.27,0.87,4.55,1.31,6.83c0.42,2.2,0.84,4.4,1.29,6.59c0.25,1.2,0.77,1.47,2,1.21c0.82-0.17,1.65-0.32,2.48-0.43
		c6.19-0.78,12.38-1.54,18.56-2.33c9.48-1.22,18.95-2.47,28.42-3.69c1-0.13,1.57-0.55,1.81-1.58c1.68-7.11,3.4-14.22,5.1-21.33
		c0.56-2.34,0.45-2.47-1.88-2.41c-0.16,0-0.32,0-0.48,0C331.95,370.76,322.07,370.76,312.19,370.75z"/>
	<path d="M329.41,436.07c-5.11,0.53-9.53-5.24-9.32-9.32c0.26-5.11,4.24-9.19,9.43-9.18c5.13,0.01,9.08,4.08,9.31,9.16
		C339.02,430.86,334.76,436.61,329.41,436.07z M324.4,426.76c-0.02,2.78,2.25,5.14,5,5.18c2.75,0.04,5.13-2.27,5.19-5.03
		c0.06-2.71-2.29-5.14-5.05-5.2C326.79,421.64,324.42,423.97,324.4,426.76z"/>
	<path d="M293.24,436.05c-5.18,0.54-9.59-5.06-9.41-9.25c0.21-5.14,4.14-9.22,9.35-9.24c5.14-0.01,9.3,4.12,9.32,9.24
		c0.01,2.44-0.8,4.58-2.51,6.27C298.1,434.96,295.99,436.51,293.24,436.05z M298.3,426.82c0-2.73-2.41-5.13-5.13-5.12
		c-2.7,0.01-5.16,2.48-5.14,5.14c0.03,2.75,2.43,5.13,5.15,5.11C295.9,431.92,298.3,429.52,298.3,426.82z"/>
</g>
</svg>
