<svg id="Слой_1" data-name="Слой 1" xmlns="http://www.w3.org/2000/svg" viewBox="0 0 81.03 79.69"><defs><style>.cls-1{fill:#f697aa;}</style></defs><title>fill-content-icon</title><path class="cls-1" d="M195.34,326.35a28,28,0,0,0,2.46,1.79q13.38,7.64,26.79,15.21c3.23,1.83,6.48,3.64,9.7,5.48a9,9,0,0,1,1.29,1.12,7.33,7.33,0,0,1-1.23,1.2c-3.61,2.05-7.25,4.06-10.86,6.1a6.06,6.06,0,0,0-1,.81,4.75,4.75,0,0,0,.95.95c3.29,1.9,6.59,3.75,9.9,5.61.45.26,1,.41,1.39.7s.76.58.76.89-.38.74-.71.93c-2.49,1.43-5,2.81-7.53,4.2-1.39.78-2.79,1.54-4.18,2.34-.82.47-.8,1,0,1.49,3.78,2.08,7.56,4.14,11.32,6.25a5.73,5.73,0,0,1,1.11,1.14,6,6,0,0,1-1.09,1c-8.23,4.68-16.49,9.32-24.71,14-4.9,2.79-9.75,5.65-14.62,8.48l-24.62-14.12q-7.71-4.4-15.43-8.74a3.47,3.47,0,0,0-.57-.19v-1a1.69,1.69,0,0,0,.34-.1c4.09-2.26,8.18-4.51,12.25-6.79.24-.14.57-.54.52-.69a1.88,1.88,0,0,0-.73-.85c-2.2-1.29-4.4-2.59-6.65-3.8-1.88-1-3.82-1.93-5.73-2.89v-1.44a10.27,10.27,0,0,0,2-.65c3.49-1.93,7-3.92,10.43-5.9,1-.55,1-1,0-1.6-1.43-.8-2.87-1.58-4.29-2.39l-8.13-4.58v-1a6.45,6.45,0,0,0,1.09-.41q9.76-5.49,19.51-11,9.48-5.39,18.94-10.8a4.08,4.08,0,0,0,.78-.82Zm-.24,43A8,8,0,0,0,196,369c2.61-1.48,5.21-2.95,7.81-4.45,4.29-2.47,8.57-5,12.87-7.43,3.74-2.15,7.52-4.23,11.28-6.36,1-.54,1-1,0-1.53L214.3,341.5c-6.08-3.45-12.17-6.89-18.24-10.37a1.67,1.67,0,0,0-1.88,0q-10,5.75-20,11.42c-3.93,2.23-7.88,4.42-11.81,6.64-.32.18-.75.55-.73.8s.43.61.75.82c.6.38,1.27.67,1.89,1,3.6,2.07,7.2,4.15,10.81,6.21q9.4,5.38,18.84,10.76C194.33,369,194.74,369.17,195.1,369.34Zm-23.27,7.13a11.09,11.09,0,0,0-1.07.5c-2.79,1.56-5.57,3.12-8.35,4.71-.31.18-.72.53-.73.82s.42.62.73.8c3.19,1.82,6.41,3.59,9.6,5.42,7.45,4.27,14.89,8.57,22.36,12.81a1.86,1.86,0,0,0,1.53,0c3.95-2.19,7.86-4.44,11.78-6.68q10.09-5.76,20.18-11.54a1.48,1.48,0,0,0,.71-.84c0-.2-.37-.57-.66-.73-2.84-1.64-5.67-3.28-8.57-4.82a2.5,2.5,0,0,0-1.86,0,31.08,31.08,0,0,0-3,1.72c-6.13,3.52-12.25,7.07-18.41,10.53a3.4,3.4,0,0,1-2-.07c-.36-.07-.65-.44-1-.64l-18.72-10.71C173.51,377.32,172.65,376.9,171.83,376.47Zm23.33,9.26c.79-.47,1.52-.92,2.27-1.35l15.11-8.58L228.06,367c.25-.14.6-.46.57-.66a1.24,1.24,0,0,0-.6-.76c-2.76-1.6-5.56-3.14-8.32-4.75a2.09,2.09,0,0,0-2.45,0c-.79.53-1.62,1-2.45,1.5-6.2,3.56-12.41,7.1-18.61,10.67a1.94,1.94,0,0,1-2.13,0c-7-4.09-14.1-8.17-21.2-12.18a2.54,2.54,0,0,0-2.09,0c-2.93,1.53-5.8,3.21-8.67,4.86-.24.13-.53.46-.52.68s.33.52.58.67c.47.29,1,.47,1.49.75,3.22,1.85,6.43,3.72,9.66,5.57q9.24,5.31,18.51,10.6C192.89,384.48,194,385.07,195.16,385.73Z" transform="translate(-154.54 -326.35)"/></svg>