<?xml version="1.0" encoding="utf-8"?>
<!-- Generator: Adobe Illustrator 23.0.2, SVG Export Plug-In . SVG Version: 6.00 Build 0)  -->
<svg version="1.1" id="Слой_1" xmlns="http://www.w3.org/2000/svg" xmlns:xlink="http://www.w3.org/1999/xlink" x="0px" y="0px"
	 viewBox="0 0 612 792" style="enable-background:new 0 0 612 792;" xml:space="preserve">
<g>
	<path d="M334.08,356.16c0.96,0,1.92,0,2.88,0c0.18,1.74,0.38,3.47,0.53,5.21c0.05,0.59,0.02,1.2-0.02,1.8
		c-0.06,1.06,0.45,1.56,1.48,1.58c1.56,0.03,3.12,0.06,4.68,0.11c0.48,0.02,0.96,0.04,1.42,0.17c1.04,0.29,1.49,2.23,0.71,3
		c-4.2,4.16-8.39,8.34-12.62,12.46c-0.54,0.53-1.29,0.89-2.01,1.18c-0.73,0.3-0.84,0.65-0.42,1.26c2.63,3.82,4.1,8.09,4.86,12.63
		c1.56,9.37-0.51,17.94-5.87,25.71c-3.44,4.99-7.88,8.94-13.41,11.47c-2.88,1.31-5.9,2.9-8.95,3.11c-4.86,0.34-9.8,0.86-14.7-0.51
		c-4.3-1.2-8.32-2.88-11.89-5.47c-7.06-5.13-11.82-11.89-13.87-20.46c-0.08-0.35-0.48-0.62-0.73-0.93c0-4.8,0-9.6,0-14.4
		c0.25-0.33,0.59-0.62,0.72-1c0.38-1.09,0.66-2.21,1.01-3.31c1.4-4.37,3.75-8.2,6.75-11.61c5.41-6.14,12.15-9.96,20.22-11.46
		c5.05-0.94,10.05-0.69,14.97,0.58c3.32,0.86,6.52,2.13,9.37,4.13c0.69,0.48,1.11,0.44,1.37-0.49c0.18-0.62,0.53-1.26,0.99-1.72
		c3.93-3.98,7.91-7.91,11.85-11.88C333.72,357.03,333.86,356.56,334.08,356.16z M300.89,369.93c-7.22,0-13.65,2.15-19.28,6.59
		c-7.75,6.12-11.75,14.23-12.06,24.02c-0.24,7.41,2,14.15,6.59,20.06c3.62,4.67,8.2,8.08,13.7,10.11c5.4,1.99,10.96,2.62,16.73,1.5
		c5.69-1.1,10.7-3.42,15.06-7.17c4.27-3.67,7.33-8.21,9.14-13.53c1.43-4.21,1.87-8.57,1.48-13.01c-0.27-3.09-0.8-6.11-2.17-8.91
		c-1.09-2.21-2.18-4.44-3.49-6.52c-1.26-1.99-2.88-1.98-4.57-0.28c-1.27,1.28-2.53,2.56-3.85,3.78c-0.72,0.67-0.82,1.17-0.14,2
		c2.24,2.76,3.57,5.99,4.05,9.47c0.55,4.01,0.12,7.94-1.61,11.71c-2.88,6.29-7.65,10.48-14.25,12.18
		c-5.71,1.47-11.33,0.77-16.47-2.52c-5.56-3.56-9.01-8.49-10.01-15.04c-0.99-6.47,0.79-12.16,4.98-17.14
		c2.79-3.31,6.32-5.46,10.45-6.67c3.65-1.07,7.36-1.04,11.01-0.12c2.84,0.72,5.49,1.98,7.76,3.89c0.57,0.48,1.08,0.43,1.58-0.07
		c1.57-1.59,3.17-3.16,4.7-4.8c0.9-0.96,0.8-2.17-0.15-3.1c-0.34-0.34-0.7-0.67-1.09-0.93C313.49,371.79,307.48,369.8,300.89,369.93
		z M300.02,418.99c8.62-0.1,15.22-4.6,17.75-11.82c1.99-5.66,1.11-11.1-2.15-16.15c-0.55-0.85-1.09-0.87-1.81-0.11
		c-1.68,1.76-3.4,3.49-5.15,5.18c-0.62,0.6-0.72,1.21-0.35,1.93c1.48,2.87,0.84,5.48-0.96,7.96c-1.83,2.53-5.41,3.82-8.29,2.98
		c-3.21-0.94-5.78-4.11-6-7.22c-0.41-5.76,6.22-10.49,11.02-7.86c0.84,0.46,1.54,0.31,2.24-0.43c1.62-1.71,3.33-3.34,5-5
		c0.82-0.81,0.83-1.29-0.19-1.86c-1.39-0.78-2.79-1.61-4.28-2.11c-8.76-2.96-18.14,1.12-21.85,9.22c-2.52,5.5-2.36,10.95,0.51,16.13
		C288.85,415.83,294.27,418.69,300.02,418.99z M327.85,378.04c1.09-0.14,2.43,0.46,3.57-0.69c2.67-2.69,5.43-5.31,8.13-7.97
		c0.2-0.19,0.25-0.54,0.36-0.81c-0.28-0.1-0.57-0.26-0.85-0.27c-0.84-0.04-1.68,0.01-2.52-0.01c-1.54-0.05-2.45-0.95-2.5-2.47
		c-0.03-0.8,0.03-1.6,0-2.4c-0.01-0.33-0.18-0.65-0.27-0.97c-0.3,0.15-0.66,0.23-0.88,0.45c-2.21,2.19-4.32,4.5-6.62,6.59
		c-1.57,1.43-2.25,2.9-2.08,5.1C324.49,378.25,323.74,377.95,327.85,378.04z M301.11,405.53c2.43-0.02,4.44-2.07,4.35-4.49
		c-0.01-0.28-0.2-0.76-0.36-0.79c-0.28-0.05-0.67,0.12-0.91,0.32c-0.71,0.63-1.35,1.35-2.06,1.99c-0.76,0.7-1.5,0.55-2.21-0.14
		c-0.71-0.69-0.89-1.43-0.22-2.21c0.62-0.72,1.34-1.35,1.99-2.06c0.19-0.21,0.27-0.54,0.4-0.81c-0.3-0.14-0.6-0.39-0.9-0.4
		c-2.45-0.08-4.36,1.79-4.37,4.24C296.78,403.61,298.7,405.55,301.11,405.53z"/>
</g>
</svg>
