<svg id="Слой_1" data-name="Слой 1" xmlns="http://www.w3.org/2000/svg" viewBox="0 0 79.93 79.95"><defs><style>.cls-1{fill:#f697aa;}</style></defs><title>no-risk-icon</title><path class="cls-1" d="M337.2,356.16a3.88,3.88,0,0,0,.95.79,12.61,12.61,0,0,1,7.18,7.12,10.78,10.78,0,0,1,.73,4.62c0,12.83.09,25.67-.05,38.5,0,4.52-2.51,7.83-6.43,10a12.81,12.81,0,0,1-2.55,1,1.89,1.89,0,0,0-1.43,2.07c0,4.35.08,8.71.07,13.07a4.9,4.9,0,0,1-.48,1.93,1.52,1.52,0,0,1-2.52.28c-5.31-5.32-10.59-10.66-16-15.92a3.84,3.84,0,0,0-2.47-.88c-11.75,0-23.5,0-35.26,0A12.39,12.39,0,0,1,268.8,414a27.91,27.91,0,0,1-1.83-3.2,5.4,5.4,0,0,0-.81-.92V365c.26-.27.64-.5.75-.82a11.82,11.82,0,0,1,7.3-7.32c.32-.12.55-.49.83-.74Zm-31,3.42c-9,0-17.92,0-26.88,0-5.93,0-9.65,3.61-9.68,9.4q-.08,18.48,0,37a10.54,10.54,0,0,0,1.09,4.59,8.42,8.42,0,0,0,8,4.69c12.11,0,24.23,0,36.35,0a4.49,4.49,0,0,1,3.52,1.42c3.94,4,7.93,8,11.92,12a4.6,4.6,0,0,0,1.2.65,5,5,0,0,0,.44-1.37c0-3.4,0-6.8-.05-10.2a2.19,2.19,0,0,1,2.17-2.49c5.21-.68,8.28-4,8.31-9.26q.08-18.48,0-36.95a10.81,10.81,0,0,0-1.12-4.71c-1.79-3.5-5-4.72-8.78-4.7C323.85,359.6,315,359.58,306.17,359.58Z" transform="translate(-266.16 -356.16)"/><path class="cls-1" d="M299,374.08c.29-1.58.48-3.18.91-4.71a3.8,3.8,0,0,1,1.34-1.64c2.93-2.43,9.64-1.34,11.24,1.86a5.38,5.38,0,0,1,.52,2.65c-.43,5.7-.87,11.39-1.47,17.07a5.38,5.38,0,0,1-7,4.81,5.28,5.28,0,0,1-3.88-4.71c-.37-3.41-.61-6.84-.91-10.26-.14-1.67-.31-3.34-.47-5Zm7.17-4c-.44,0-.88,0-1.32,0-1.46.08-2.25.86-2.14,2.3q.66,8.17,1.4,16.34a2.41,2.41,0,0,0,2,2.19,2.48,2.48,0,0,0,2-2.22c.48-5.41,1-10.82,1.41-16.23a2,2,0,0,0-2.18-2.38C307,370,306.56,370.06,306.16,370.06Z" transform="translate(-266.16 -356.16)"/><path class="cls-1" d="M306.16,408.23a5.18,5.18,0,1,1,5.16-5.12A5.3,5.3,0,0,1,306.16,408.23Zm-.05-6.88a2,2,0,0,0-1.68,1.74,1.69,1.69,0,1,0,3.38,0A2,2,0,0,0,306.11,401.35Z" transform="translate(-266.16 -356.16)"/></svg>