<svg id="Слой_1" data-name="Слой 1" xmlns="http://www.w3.org/2000/svg" viewBox="0 0 80 79.95"><defs><style>.cls-1{fill:#f697aa;}</style></defs><title>quality-support-icon</title><path class="cls-1" d="M311.28,356.16a4,4,0,0,0,1.15.69,30.08,30.08,0,0,1,18.79,12.49,28.8,28.8,0,0,1,5.16,13.38,2.51,2.51,0,0,0,1.85,2.25c3.36,1.19,5.48,3.58,7,6.77a10.94,10.94,0,0,1,.68,6.75,10.31,10.31,0,0,1-3.82,6.43,21.15,21.15,0,0,1-4,2.35,2.13,2.13,0,0,0-1.36,2.26,22.27,22.27,0,0,1-1.44,8.81,20.24,20.24,0,0,1-7.59,9.63,22.59,22.59,0,0,1-11.05,3.94,2.2,2.2,0,0,0-1.81,1.14c-1.18,1.81-2.62,3.25-5.1,3a6,6,0,0,1-4.62-3.41,5.43,5.43,0,0,1,4.52-7.26,4.9,4.9,0,0,1,4.77,2.46,2.59,2.59,0,0,0,3,1.28c6.23-1,11.17-4,14.38-9.51a18.83,18.83,0,0,0,2.3-10.29c0-.9-.5-1.25-1.37-1.29-2.53-.12-2.69-.34-2.68-2.82q0-9.3,0-18.6c0-2,.32-2.38,2.31-2.48,1.32-.07,1.63-.46,1.39-1.75-1.61-8.6-6-15.33-13.59-19.8a26.81,26.81,0,0,0-17.77-3.53,27.52,27.52,0,0,0-20,12.88,28.69,28.69,0,0,0-4,10.71c-.17,1,.24,1.41,1.21,1.49,2.41.2,2.53.38,2.52,2.87q0,9.29,0,18.59c0,1.94-.45,2.38-2.35,2.48-4.44.24-8.21-1.09-11-4.6a26.17,26.17,0,0,1-1.79-3.09,10.56,10.56,0,0,0-.84-1.06v-6.72a4.83,4.83,0,0,0,.9-1.09,11.65,11.65,0,0,1,6.79-6.53,2.62,2.62,0,0,0,2-2.37,27.24,27.24,0,0,1,3.52-10.73,30.23,30.23,0,0,1,20.13-15,4.56,4.56,0,0,0,1.22-.76Zm-31.78,40h0c0-2.55,0-5.1,0-7.66,0-1.32-.34-1.74-1.69-1.66a9.06,9.06,0,0,0-7.95,5.08c-3.2,6,1.44,13.6,8.2,13.48,1,0,1.46-.44,1.46-1.46C279.49,401.36,279.5,398.77,279.5,396.17Zm63.92-.11a9.39,9.39,0,0,0-9-9.22c-1.33,0-1.64.37-1.63,1.73q0,7.55,0,15.1c0,1.4.33,1.79,1.75,1.72A9.37,9.37,0,0,0,343.42,396.06Zm-33.35,32a3.08,3.08,0,0,0-2.69,2.74,2.73,2.73,0,0,0,5.45-.06A3.09,3.09,0,0,0,310.07,428.09Z" transform="translate(-266.16 -356.16)"/></svg>