<?xml version="1.0" encoding="utf-8"?>
<!-- Generator: Adobe Illustrator 23.0.2, SVG Export Plug-In . SVG Version: 6.00 Build 0)  -->
<svg version="1.1" id="Слой_1" xmlns="http://www.w3.org/2000/svg" xmlns:xlink="http://www.w3.org/1999/xlink" x="0px" y="0px"
	 viewBox="0 0 612 792" style="enable-background:new 0 0 612 792;" xml:space="preserve">
<g>
	<path d="M344.4,436.08c-0.84,0-1.67,0-2.51,0c-23.68,0-47.35,0-71.03,0c-0.28,0-0.57,0.04-0.84-0.01c-0.59-0.12-1.48,0.34-1.64-0.7
		c-0.15-1-0.27-2.09,1.05-2.41c0.76-0.19,1.57-0.24,2.35-0.24c1.37,0.01,1.62-0.18,1.62-1.56c0-3.88-0.02-7.76-0.02-11.64
		c0-3.06,1.94-5.07,4.97-5.11c2.24-0.03,4.48-0.04,6.72-0.01c3.08,0.04,5.01,1.99,5.01,5.08c0,3.88-0.03,7.76-0.06,11.64
		c-0.01,1.31,0.29,1.62,1.61,1.61c1.64-0.02,3.28-0.02,4.92,0c1.36,0.01,1.65-0.25,1.65-1.56c-0.02-8.12,0.07-16.24-0.11-24.35
		c-0.08-3.71,2.6-5.81,5.64-5.59c1.99,0.14,4,0.02,6,0.03c2.95,0.02,4.98,1.89,4.99,4.82c0.04,8.2,0.01,16.4-0.02,24.6
		c-0.01,1.89,0.15,2.09,1.99,2.05c1.56-0.03,3.12-0.02,4.68,0.02c1.07,0.03,1.52-0.44,1.52-1.51c-0.03-15.68-0.04-31.35-0.07-47.03
		c0-1.77,0.33-3.43,1.89-4.42c0.87-0.55,1.97-0.93,2.98-0.99c2.27-0.15,4.56-0.06,6.84-0.04c2.89,0.02,4.91,1.99,4.91,4.89
		c0,15.76-0.01,31.51-0.03,47.27c0,1.58,0.24,1.73,1.78,1.82c1.08,0.06,2.14,0.46,3.2,0.71C344.4,434.32,344.4,435.2,344.4,436.08z
		 M326.51,407.76c0,7.76,0,15.52,0,23.28c0,1.53,0.18,1.68,1.74,1.67c1.96-0.02,3.92,0,5.88,0.02c1.33,0.01,1.66-0.28,1.66-1.58
		c-0.01-8.72-0.04-17.44-0.04-26.16c0-6.88,0.02-13.76,0.04-20.64c0-1.55-0.46-1.96-2.02-1.93c-1.68,0.04-3.36,0.03-5.04-0.01
		c-1.87-0.04-2.22,0.26-2.22,2.07C326.51,392.24,326.51,400,326.51,407.76z M311.08,418.92c0,0-0.01,0-0.01,0
		c0-4.08-0.02-8.16,0.02-12.23c0.01-1.06-0.4-1.6-1.44-1.62c-2.12-0.02-4.24-0.03-6.36-0.01c-0.95,0.01-1.45,0.49-1.44,1.5
		c0.01,8.24,0.01,16.47,0,24.71c0,1,0.43,1.47,1.44,1.46c2.08-0.02,4.16-0.01,6.24-0.02c1.25-0.01,1.57-0.34,1.56-1.56
		C311.08,427.07,311.08,423,311.08,418.92z M277.18,425.45c0,1.96,0.01,3.91-0.01,5.87c-0.01,1.01,0.42,1.43,1.45,1.41
		c2.08-0.05,4.15-0.06,6.23-0.01c1.02,0.03,1.48-0.36,1.47-1.38c-0.01-3.91-0.02-7.83,0-11.74c0-1.13-0.52-1.57-1.62-1.55
		c-1.92,0.04-3.83,0.02-5.75,0.01c-1.43,0-1.75,0.29-1.77,1.75C277.18,421.7,277.19,423.58,277.18,425.45z"/>
	<path d="M338.88,356.16c0.19,1.32,0.48,2.64,0.55,3.97c0.1,1.91,0.1,3.84,0.03,5.76c-0.02,0.67-0.23,1.45-0.62,1.98
		c-0.77,1.02-2.33,0.84-2.69-0.37c-0.33-1.1-0.22-2.34-0.33-3.52c-0.04-0.41-0.15-0.81-0.23-1.22c-0.36,0.19-0.8,0.31-1.08,0.59
		c-4.75,4.75-9.48,9.52-14.23,14.27c-1.47,1.47-2.22,1.45-3.73-0.03c-1.37-1.35-2.74-2.69-4.07-4.07c-0.72-0.75-1.27-0.7-2,0.04
		c-8.42,8.48-16.87,16.94-25.32,25.39c-0.7,0.7-1.48,1.3-2.54,0.63c-1.18-0.74-1.21-1.97-0.06-3.13c2.96-2.98,5.93-5.95,8.89-8.92
		c5.99-6,11.98-11.99,17.96-18c1.81-1.82,2.39-1.85,4.23-0.01c1.3,1.3,2.6,2.6,3.84,3.96c0.68,0.74,1.2,0.7,1.89,0.01
		c4.2-4.22,8.44-8.41,12.64-12.63c0.27-0.27,0.35-0.73,0.52-1.11c-0.37-0.09-0.73-0.24-1.11-0.25c-0.68-0.02-1.36,0.06-2.04,0.07
		c-2.83,0.04-3.48-0.76-2.76-3.41C330.72,356.16,334.8,356.16,338.88,356.16z"/>
	<path d="M280.02,403.47c0.03,0.88-0.79,1.74-1.73,1.79c-0.9,0.05-1.8-0.74-1.86-1.65c-0.06-0.88,0.76-1.79,1.66-1.86
		C279.08,401.69,279.99,402.5,280.02,403.47z"/>
</g>
</svg>
