<svg id="Слой_1" data-name="Слой 1" xmlns="http://www.w3.org/2000/svg" viewBox="0 0 82.2 79.95"><defs><style>.cls-1{fill:#f597aa;}</style></defs><title>site-control-icon</title><path class="cls-1" d="M307,356.16c.9,1.49.72,3.14.71,4.77,0,7.6,0,15.19,0,22.79a1.89,1.89,0,0,0,1.56,2.09c3.89,1,7.5,5.61,7.25,10.31a10.73,10.73,0,0,1-7.24,9.73,2,2,0,0,0-1.58,2.29q.08,12.71.07,25.42c0,1.36-.63,2.43-1.4,2.47s-1.5-1-1.5-2.48c0-8.47,0-16.95.08-25.42a1.86,1.86,0,0,0-1.63-2.1c-5.91-1.57-9.25-8.09-7.3-13.44a10.54,10.54,0,0,1,6.84-6.82c2-.69,2.05-.73,2-2.89,0-8.08,0-16.15,0-24.23a10.11,10.11,0,0,1,.7-2.49Zm-8.64,39.63a7.6,7.6,0,1,0,7.62-7.62A7.67,7.67,0,0,0,298.32,395.79Z" transform="translate(-265.2 -356.16)"/><path class="cls-1" d="M265.2,422.64a4.61,4.61,0,0,0,.85-1.05,9.89,9.89,0,0,1,5.66-5.54c2.3-.93,2.31-.86,2.31-3.39q0-24.95,0-49.9c0-2.21-.3-4.45.53-6.6h1.68c1.18,2.12.69,4.42.7,6.65q0,25.49,0,51c0,1.38.81,1.77,1.84,2.13a10.25,10.25,0,0,1,4,16.88c-2.45,2.4-5.41,3.84-8.84,3.16a10.6,10.6,0,0,1-6.59-4.23c-.51-.7-.83-1.53-1.29-2.27a4.59,4.59,0,0,0-.79-.8Zm10.15,10.3a7.35,7.35,0,1,0-7.2-7.45A7.46,7.46,0,0,0,275.35,432.94Z" transform="translate(-265.2 -356.16)"/><path class="cls-1" d="M339.36,356.16a4.06,4.06,0,0,0,1,.77,11.32,11.32,0,0,1,6.2,5.8,8.93,8.93,0,0,1,.57,6.26,9.43,9.43,0,0,1-4.29,6.1,28.9,28.9,0,0,1-3.23,1.53,1.62,1.62,0,0,0-1.18,1.6q.06,14.44.06,28.9,0,13.08,0,26.15a5,5,0,0,1-.52,2.15.91.91,0,0,1-1.73.07,4.06,4.06,0,0,1-.66-2q0-27.58,0-55.17a1.86,1.86,0,0,0-1.59-1.93,10.27,10.27,0,0,1-2.76-18.2c.76-.5,1.64-.81,2.44-1.27a5.67,5.67,0,0,0,.91-.8Zm-2.3,3.13a7.36,7.36,0,1,0,7.27,7.39A7.45,7.45,0,0,0,337.06,359.29Z" transform="translate(-265.2 -356.16)"/></svg>