<svg version="1.1" id="Слой_1" xmlns="http://www.w3.org/2000/svg" xmlns:xlink="http://www.w3.org/1999/xlink" x="0px" y="0px"
	 viewBox="0 0 612 792" fill="f697aa" xml:space="preserve" >
<g>
	<path d="M346.32,397.44c-0.25,0.21-0.57,0.38-0.74,0.65c-1.1,1.71-2.16,3.43-3.24,5.15c-0.04,0.07-0.09,0.15-0.15,0.18
		c-2.61,1.12-2.66,3.8-3.55,5.93c-2.49,5.97-6.29,10.89-11.52,14.7c-4.13,3.01-8.7,5-13.69,6.06c-0.4,0.09-0.8,0.48-1.07,0.83
		c-1.12,1.5-2.16,3.05-3.31,4.53c-0.24,0.31-0.76,0.47-1.18,0.57c-3.08,0.75-4.35-1.48-5.55-3.58c-0.88-1.55-1.93-2.51-3.74-2.92
		c-5.45-1.23-10.2-3.9-14.34-7.62c-3.48-3.13-6.33-6.76-8.18-11.09c-0.73-1.72-1.28-3.51-1.95-5.25c-0.13-0.35-0.39-0.81-0.69-0.91
		c-1.94-0.69-2.91-2.36-3.85-3.95c-1.01-1.7-2.27-3.28-2.24-5.51c0.02-2.3,1.23-3.8,2.8-5.11c0.68-0.56,1.59-0.91,2.45-1.16
		c0.97-0.28,1.41-0.79,1.68-1.76c1.33-4.81,3.72-9.06,7.04-12.78c0.56-0.63,1.31-0.73,1.93-0.21c0.73,0.61,0.6,1.46,0.1,2.17
		c-0.64,0.91-1.37,1.76-2.05,2.65c-2.07,2.74-3.25,5.92-4.44,9.1c-0.36,0.95,0.39,1.34,1.03,1.77c2.01,1.35,3.23,3.28,2.96,5.65
		c-0.18,1.6-1.04,3.15-1.77,4.64c-0.54,1.1-1.42,2.02-2.05,3.08c-0.24,0.4-0.4,1.02-0.27,1.44c1.35,4.34,3.27,8.37,6.23,11.88
		c2.91,3.45,6.39,6.15,10.41,8.12c1.78,0.88,3.72,1.45,5.59,2.12c0.72,0.26,1.12-0.02,1.21-0.83c0.28-2.66,2.72-5.06,5.69-5.51
		c2.55-0.39,5.42,0.91,6.71,3.24c0.38,0.68,0.73,1.44,0.83,2.2c0.14,1.01,0.57,1.22,1.45,0.95c4.42-1.38,8.55-3.3,12.15-6.3
		c4.85-4.04,8.02-9.13,9.96-15.07c0.29-0.9,0.14-1.58-0.42-2.43c-1.31-1.98-2.63-4.02-3.5-6.22c-1-2.54,0.35-5.5,2.68-6.94
		c1.62-1,1.57-1.12,0.95-2.88c-1.45-4.11-3.49-7.87-6.43-11.1c-3.73-4.1-8.18-7.1-13.52-8.74c-0.69-0.21-1.35-0.48-2.04-0.69
		c-1.86-0.55-2.21-0.39-3.19,1.29c-0.4,0.69-0.78,1.41-1.29,2.01c-2.47,2.97-4.45,3.01-6.95-0.19c-0.51-0.66-0.91-1.41-1.33-2.13
		c-0.59-1.02-1.32-1.44-2.57-1.06c-4.38,1.36-8.56,3.09-12.1,6.1c-0.27,0.23-0.6,0.59-0.88,0.58c-0.58-0.03-1.37-0.12-1.65-0.49
		c-0.26-0.35-0.21-1.34,0.1-1.64c0.96-0.95,2.06-1.76,3.18-2.52c3.07-2.06,6.36-3.66,9.97-4.54c1.97-0.48,1.9-0.51,2.2-2.61
		c0.26-1.8,1.46-3.05,2.81-4.17c0.32-0.26,0.54-0.63,0.81-0.95c2,0,4,0,6,0c0.26,0.32,0.49,0.68,0.8,0.95
		c1.45,1.25,2.79,2.59,2.83,4.65c0.02,1.06,0.41,1.59,1.44,1.83c4.28,1.02,8.23,2.8,11.8,5.39c6.32,4.57,10.75,10.5,12.93,18.03
		c0.26,0.91,0.63,1.72,1.7,1.97c1.91,0.45,3.18,1.73,4.19,3.33c0.2,0.31,0.52,0.54,0.79,0.81
		C346.32,394.56,346.32,396,346.32,397.44z M278.13,395.47c-0.27-1.93-1.2-3.02-2.71-3.68c-1.5-0.66-2.77-0.11-3.88,0.79
		c-1.34,1.08-1.61,2.66-0.92,4.13c0.75,1.6,1.82,3.07,2.82,4.55c0.47,0.69,1.09,0.6,1.55-0.08c0.7-1.02,1.42-2.02,2.01-3.1
		C277.51,397.19,277.83,396.2,278.13,395.47z M343.35,395.84c-0.02-2.39-1.25-3.83-3.21-4.26c-1.39-0.31-2.53,0.33-3.44,1.26
		c-0.89,0.91-1.52,2.11-0.89,3.38c0.86,1.74,1.91,3.38,2.94,5.04c0.41,0.65,1,0.63,1.48,0.03c0.59-0.75,1.22-1.49,1.68-2.32
		C342.54,397.79,343.03,396.54,343.35,395.84z M306.83,358.83c-2.67,0-4.51,2.45-3.5,4.9c0.68,1.64,1.67,3.15,2.63,4.66
		c0.52,0.81,1.26,0.74,1.84-0.09c0.77-1.11,1.56-2.23,2.18-3.43C311.82,361.29,309.46,358.86,306.83,358.83z M306.93,423.21
		c-2.52-0.26-4.75,2.91-3.66,4.85c0.85,1.52,1.63,3.09,2.56,4.56c0.58,0.91,1.5,0.81,2.14-0.13c0.67-0.99,1.34-1.98,1.93-3.02
		C311.58,426.49,310.04,423.26,306.93,423.21z"/>
	<path d="M306.86,419.32c-12.25,0.71-23.1-10.76-22.82-22.91c0.29-12.5,10.56-22.65,23.09-22.59c12.59,0.06,22.86,10.46,22.85,22.98
		C329.97,409.1,319.14,420.06,306.86,419.32z M307.02,402.06c0-0.01,0-0.02,0-0.02c1.64,0,3.28,0,4.91,0c0.7,0,1.17-0.29,1.17-1.05
		c0.01-2.84,0.01-5.67,0-8.51c0-0.76-0.38-1.23-1.16-1.24c-3.24-0.02-6.47-0.04-9.71-0.02c-0.85,0-1.29,0.5-1.34,1.37
		c-0.03,0.55-0.07,1.17-0.33,1.62c-0.24,0.41-0.84,0.92-1.2,0.87c-0.46-0.07-0.92-0.61-1.23-1.05c-0.17-0.24-0.06-0.7-0.05-1.05
		c0.04-0.89-0.31-1.31-1.22-1.04c-2.47,0.75-4.97,1.44-7.4,2.3c-1.11,0.39-2.38,1.04-2.38,2.41c0,1.31,1.22,1.96,2.28,2.36
		c2.38,0.89,4.82,1.63,7.25,2.39c1.22,0.38,1.6,0,1.49-1.29c-0.06-0.7-0.14-1.46,0.06-2.11c0.13-0.41,0.76-0.9,1.17-0.91
		c0.41-0.01,1.05,0.47,1.2,0.87c0.28,0.77,0.36,1.64,0.37,2.47c0,1.11,0.45,1.63,1.56,1.62
		C303.98,402.05,305.5,402.06,307.02,402.06z M306.52,405.09c0,0.05,0,0.1,0,0.15c-1.28-0.06-2.56-0.09-3.83-0.19
		c-1.02-0.08-1.33,0.38-1.11,1.29c0.36,1.48,0.59,3.01,1.17,4.39c0.74,1.74,1.63,3.45,2.74,4.98c0.93,1.29,1.85,1.18,3.03,0.06
		c0.26-0.25,0.5-0.52,0.7-0.82c1.75-2.56,2.49-5.49,3.06-8.48c0.23-1.21,0-1.42-1.2-1.39C309.56,405.11,308.04,405.09,306.52,405.09
		z M307.31,388.05c1.48,0.08,2.71,0.16,3.95,0.22c0.68,0.03,1.28-0.13,1.11-0.98c-0.6-3.17-1.32-6.32-3.21-9.03
		c-1.35-1.93-2.61-1.98-4.14-0.22c-0.23,0.27-0.43,0.57-0.62,0.87c-1.58,2.51-2.12,5.39-2.83,8.2c-0.22,0.84,0.16,1.27,1.1,1.2
		C304.29,388.19,305.92,388.13,307.31,388.05z M326.58,391.33c-0.87-1.79-1.52-3.29-2.3-4.71c-2.43-4.45-6.32-7.18-10.92-9
		c-0.24-0.1-0.64-0.03-0.86,0.13c-0.12,0.08-0.07,0.54,0.04,0.76c0.27,0.57,0.74,1.08,0.91,1.67c0.7,2.49,1.28,5.01,2,7.49
		c0.15,0.5,0.7,1.17,1.14,1.24c3.08,0.5,6.11,1.1,8.87,2.66C325.67,391.68,326.07,391.45,326.58,391.33z M301.6,377.6
		c-0.35,0-0.66-0.09-0.87,0.01c-1.48,0.68-3.02,1.28-4.41,2.12c-4.24,2.57-6.87,6.45-8.61,10.99c-0.1,0.26-0.01,0.6,0,0.9
		c0.32-0.05,0.69-0.01,0.95-0.16c2.45-1.37,5.13-2.03,7.85-2.38c1.4-0.18,1.95-0.72,2.19-1.99c0.58-3.02,1.21-6.03,2.74-8.76
		C301.54,378.16,301.54,377.91,301.6,377.6z M326.44,401.91c-0.11-0.08-0.23-0.17-0.34-0.25c-0.22,0.04-0.48,0.02-0.67,0.12
		c-2.6,1.38-5.4,2.18-8.3,2.51c-1.26,0.14-1.56,0.76-1.82,1.89c-0.59,2.59-1.41,5.13-2.17,7.69c-0.18,0.61-0.46,1.2-0.69,1.8
		c0.61-0.15,1.24-0.25,1.83-0.46c4.74-1.69,8.1-4.98,10.51-9.29C325.49,404.66,325.9,403.25,326.44,401.91z M301.45,415.92
		c0.07-0.11,0.14-0.22,0.21-0.33c-0.53-1.27-1.16-2.51-1.56-3.82c-0.61-1.98-1.08-4-1.55-6.02c-0.21-0.91-0.67-1.34-1.62-1.45
		c-2.95-0.34-5.77-1.15-8.42-2.52c-0.21-0.11-0.62-0.15-0.73-0.03c-0.14,0.15-0.16,0.53-0.08,0.76c0.17,0.48,0.5,0.91,0.67,1.4
		c1.84,5.08,5.45,8.52,10.16,10.9C299.46,415.27,300.48,415.55,301.45,415.92z M316.88,401.5c0.9-0.19,1.82-0.32,2.69-0.6
		c2.35-0.74,4.81-1.22,6.7-3.01c1.09-1.03,1.13-1.55-0.04-2.51c-2.73-2.26-6.06-2.93-9.43-3.46c-0.75-0.12-0.92,0.41-0.92,1.07
		c0.01,2.47,0.02,4.94-0.02,7.4C315.86,401.13,316.08,401.55,316.88,401.5z"/>
</g>
</svg>
