<?xml version="1.0" encoding="utf-8"?>
<!-- Generator: Adobe Illustrator 23.0.2, SVG Export Plug-In . SVG Version: 6.00 Build 0)  -->
<svg version="1.1" id="Слой_1" xmlns="http://www.w3.org/2000/svg" xmlns:xlink="http://www.w3.org/1999/xlink" x="0px" y="0px"
	 viewBox="0 0 612 792" style="enable-background:new 0 0 612 792;" xml:space="preserve">
<g>
	<path d="M313.92,356.16c0.21,0.26,0.37,0.61,0.64,0.76c0.77,0.44,1.08,1.07,0.89,1.9c-0.21,0.93-0.85,1.43-1.8,1.46
		c-0.44,0.01-0.88-0.04-1.31-0.11c-9.04-1.52-17.48,0.11-25.32,4.87c-6.11,3.71-10.68,8.79-13.78,15.22
		c-3.66,7.59-4.51,15.53-2.79,23.72c1.03,4.89,3.07,9.4,5.99,13.49c0.6,0.84,1.31,0.67,2.13,0.46c4.85-1.25,8.38,2.8,8.53,6.44
		c0.12,2.78-2.09,5.76-4.82,6.66c-2.73,0.9-5.69-0.1-7.44-2.48c-1.51-2.05-2-4.19-0.91-6.64c0.24-0.53,0.14-1.5-0.2-1.96
		c-2.92-3.97-4.99-8.36-6.42-13.05c-0.2-0.65-0.23-1.35-0.45-1.98c-0.13-0.37-0.46-0.67-0.7-1c0-5.2,0-10.4,0-15.6
		c0.27-0.46,0.67-0.88,0.78-1.38c1.39-6.25,4.26-11.79,8.39-16.62c5.78-6.77,12.95-11.43,21.73-13.4c0.45-0.1,0.84-0.5,1.26-0.76
		C303.52,356.16,308.72,356.16,313.92,356.16z M277.13,424.51c-0.02,1.67,1.43,3.16,3.08,3.16c1.59,0,3.05-1.45,3.08-3.06
		c0.03-1.75-1.32-3.17-3.04-3.2C278.56,421.37,277.15,422.77,277.13,424.51z"/>
	<path d="M334.94,396.21c0,1.24,0,2.48,0,3.72c0,2.05-1,3.12-3.02,2.97c-1.29-0.09-1.91,0.43-2.31,1.56
		c-0.33,0.94-0.78,1.84-1.24,2.72c-0.41,0.78-0.39,1.43,0.29,2.04c0.36,0.32,0.69,0.67,1.01,1.02c0.83,0.9,0.89,1.91,0.05,2.77
		c-2.21,2.26-4.44,4.49-6.7,6.7c-0.87,0.85-1.87,0.81-2.77-0.02c-0.24-0.21-0.45-0.45-0.68-0.68c-1.2-1.18-1.37-1.17-2.9-0.34
		c-0.84,0.45-1.75,0.78-2.64,1.12c-0.81,0.31-1.18,0.84-1.15,1.74c0.07,2.62-0.77,3.43-3.4,3.42c-2.36-0.01-4.72,0-7.08,0
		c-2.2,0-3.2-0.98-3.06-3.16c0.07-1.11-0.34-1.7-1.35-2.08c-1-0.38-1.97-0.86-2.94-1.34c-0.77-0.38-1.45-0.41-2.04,0.3
		c-1.98,2.37-2.99,2.05-5.01-0.12c-1.72-1.84-3.56-3.56-5.32-5.36c-1.06-1.09-1.03-2.01,0.03-3.11c0.31-0.32,0.61-0.64,0.93-0.94
		c0.59-0.54,0.63-1.14,0.28-1.84c-0.51-1.04-1.01-2.08-1.44-3.15c-0.36-0.89-0.9-1.29-1.92-1.24c-2.4,0.11-3.31-0.88-3.27-3.32
		c0.03-2.36,0.04-4.72,0.01-7.08c-0.02-2.31,0.87-3.29,3.16-3.16c1.13,0.06,1.69-0.39,2.07-1.38c0.4-1.04,0.9-2.04,1.39-3.04
		c0.35-0.7,0.3-1.29-0.28-1.84c-0.41-0.38-0.81-0.77-1.18-1.19c-0.71-0.81-0.75-1.82,0-2.6c2.23-2.29,4.49-4.55,6.78-6.79
		c0.86-0.84,1.87-0.77,2.77,0.06c0.26,0.24,0.53,0.49,0.76,0.77c0.78,0.97,1.6,0.94,2.62,0.32c0.88-0.53,1.88-0.88,2.84-1.26
		c0.83-0.32,1.14-0.87,1.11-1.76c-0.09-2.48,0.78-3.36,3.22-3.35c2.44,0.01,4.88-0.01,7.32,0c2.13,0.01,3.14,1,3,3.1
		c-0.07,1.1,0.29,1.71,1.32,2.1c1.04,0.39,2.04,0.91,3.04,1.4c0.73,0.36,1.41,0.37,1.94-0.3c1.78-2.26,2.92-2.19,5.02,0.08
		c1.68,1.82,3.51,3.5,5.24,5.27c1.18,1.2,1.15,2.1-0.01,3.3c-1.56,1.61-1.55,1.6-0.53,3.72c0.36,0.75,0.63,1.55,0.94,2.34
		c0.3,0.77,0.83,1.08,1.67,1.06c2.71-0.05,3.48,0.78,3.41,3.5c-0.03,1.12,0,2.24,0,3.36C334.93,396.21,334.94,396.21,334.94,396.21z
		 M306.04,421.12C306.04,421.12,306.04,421.13,306.04,421.12c0.56,0.01,1.12-0.02,1.68,0.02c1.02,0.07,1.46-0.35,1.42-1.4
		c-0.06-1.91,0.4-2.4,2.2-3.02c1.77-0.61,3.55-1.24,5.22-2.07c2.27-1.12,2.24-1.23,4.14,0.46c0.72,0.64,1.31,0.62,1.96-0.05
		c0.61-0.63,1.22-1.26,1.86-1.87c1.54-1.48,1.54-1.51,0.09-3.01c-0.94-0.97-0.96-1.76-0.4-2.92c0.89-1.82,1.77-3.66,2.44-5.57
		c0.79-2.25,0.89-2.46,3.34-2.58c0.89-0.04,1.19-0.47,1.17-1.3c-0.03-1-0.04-2-0.02-3c0.02-1.52-0.11-1.67-1.58-1.69
		c-1.62-0.01-2.24-0.57-2.76-2.1c-0.62-1.81-1.26-3.62-2.09-5.34c-1.14-2.35-1.25-2.33,0.48-4.2c0.63-0.68,0.6-1.23-0.04-1.84
		c-0.67-0.63-1.32-1.28-1.96-1.94c-1.4-1.45-1.55-1.46-2.96-0.1c-0.96,0.93-1.74,0.96-2.92,0.41c-1.87-0.88-3.75-1.75-5.7-2.44
		c-2.07-0.73-2.41-1.02-2.44-3.21c-0.01-0.83-0.31-1.28-1.2-1.26c-1.2,0.02-2.4,0.03-3.6,0c-0.95-0.02-1.26,0.45-1.25,1.33
		c0.01,2.02-0.39,2.44-2.28,3.09c-1.77,0.6-3.54,1.25-5.21,2.08c-2.2,1.1-2.18,1.2-4.03-0.47c-0.71-0.64-1.31-0.65-1.96,0.03
		c-0.64,0.66-1.28,1.32-1.94,1.96c-1.46,1.42-1.47,1.46-0.03,2.92c0.94,0.96,0.96,1.75,0.4,2.91c-0.89,1.82-1.77,3.66-2.44,5.57
		c-0.79,2.25-0.89,2.47-3.33,2.6c-0.88,0.05-1.19,0.47-1.17,1.3c0.03,1,0.04,2,0.02,3c-0.02,1.52,0.11,1.67,1.58,1.68
		c1.63,0.01,2.23,0.56,2.76,2.1c0.62,1.81,1.26,3.62,2.1,5.33c1.15,2.35,1.25,2.33-0.5,4.2c-0.63,0.68-0.62,1.21,0.04,1.83
		c0.7,0.66,1.37,1.34,2.04,2.03c1.31,1.36,1.53,1.39,2.87,0.02c0.77-0.78,1.59-1.01,2.6-0.59c2.31,0.97,4.62,1.95,6.93,2.9
		c0.93,0.39,1.51,1.01,1.6,2.04c0.18,2.15,0.18,2.15,2.31,2.14C305.64,421.12,305.84,421.12,306.04,421.12z"/>
	<path d="M306.1,436.04c-1.96,0-3.92-0.03-5.88,0.01c-0.96,0.02-1.88-0.08-2.51-0.81c-0.42-0.49-0.92-1.27-0.8-1.77
		c0.15-0.58,0.87-1.21,1.48-1.43c0.62-0.22,1.42,0,2.12,0.11c8.81,1.35,17-0.32,24.63-4.91c6.62-3.98,11.48-9.56,14.47-16.63
		c3.78-8.95,4.17-18.11,0.63-27.23c-1.12-2.88-2.82-5.53-4.24-8.29c-0.52-1-1.25-1.12-2.3-0.84c-5.32,1.46-9.02-3.6-8.56-7.32
		c0.36-2.87,3.04-5.6,5.92-6.01c2.98-0.42,6.03,1.38,7.23,4.22c0.71,1.68,0.84,3.33-0.01,4.98c-0.46,0.91-0.25,1.64,0.34,2.43
		c3.22,4.36,5.32,9.22,6.69,14.47c1.4,5.38,0.84,10.81,0.51,16.16c-0.19,3.11-1.72,6.19-2.95,9.16c-1.78,4.27-4.42,8.05-7.63,11.39
		c-4.56,4.75-9.88,8.34-16.15,10.43c-1.81,0.61-3.63,1.17-5.46,1.73c-0.3,0.09-0.63,0.09-0.95,0.09c-2.2,0.01-4.4,0-6.6,0
		C306.1,436.03,306.1,436.03,306.1,436.04z M335.1,367.71c0.01-1.67-1.46-3.15-3.1-3.14c-1.6,0.02-3.04,1.47-3.05,3.09
		c-0.02,1.75,1.34,3.17,3.06,3.17C333.7,370.83,335.09,369.44,335.1,367.71z"/>
	<path d="M291.78,429.97c0.94-0.02,1.76,0.75,1.8,1.71c0.05,1.01-0.75,1.87-1.74,1.88c-0.92,0.01-1.78-0.79-1.82-1.71
		C289.96,430.87,290.79,429.99,291.78,429.97z"/>
	<path d="M320.52,362.3c-0.99,0.01-1.82-0.82-1.81-1.82c0.01-0.96,0.79-1.74,1.75-1.75c0.98-0.02,1.82,0.83,1.81,1.82
		C322.26,361.49,321.47,362.28,320.52,362.3z"/>
	<path d="M306.16,409.27c-7.17,0.03-13.14-5.88-13.21-13.05c-0.06-7.23,5.88-13.23,13.12-13.25c7.25-0.03,13.21,5.92,13.2,13.17
		C319.26,403.32,313.35,409.25,306.16,409.27z M296.63,396.17c0.27,5.51,4.1,9.41,9.51,9.39c5.46-0.02,9.42-3.92,9.42-9.43
		c0-5.58-4.05-9.49-9.52-9.45C300.59,386.72,296.84,390.68,296.63,396.17z"/>
</g>
</svg>
