<?xml version="1.0" encoding="utf-8"?>
<!-- Generator: Adobe Illustrator 23.0.2, SVG Export Plug-In . SVG Version: 6.00 Build 0)  -->
<svg version="1.1" id="Слой_1" xmlns="http://www.w3.org/2000/svg" xmlns:xlink="http://www.w3.org/1999/xlink" x="0px" y="0px"
	 viewBox="0 0 612 792" style="enable-background:new 0 0 612 792;" xml:space="preserve">
<g>
	<path d="M347.28,355.2c0,0.64,0,1.28,0,1.91c0,26.07,0,52.15,0,78.22c0,0.59-0.05,1.18-0.08,1.93c-0.79,0-1.5,0.06-2.2-0.03
		c-0.32-0.04-0.75-0.31-0.87-0.59c-0.26-0.61-0.49-1.29-0.49-1.94c-0.02-24.31-0.01-48.63,0-72.94c0-0.52,0.03-1.04,0.05-1.56
		c0.03-0.94-0.4-1.43-1.36-1.41c-0.68,0.01-1.36,0.03-2.04,0.03c-22.71,0-45.43,0-68.14,0c-0.68,0-1.36-0.02-2.04-0.03
		c-0.89-0.01-1.33,0.45-1.31,1.33c0.01,0.72,0.05,1.44,0.05,2.16c0,22.63,0,45.27,0,67.9c0,0.68-0.03,1.36-0.05,2.04
		c-0.04,1.01,0.44,1.45,1.45,1.45c20.75-0.02,41.51-0.04,62.26-0.04c0.66,0,1.37,0.06,1.98,0.29c0.91,0.35,1.36,1.1,1.14,2.11
		c-0.2,0.98-0.83,1.25-1.82,1.25c-22.75-0.04-45.51-0.05-68.26-0.06c-0.12,0-0.24,0.03-0.36,0.04c0-27.34,0-54.68,0-82.08
		C292.56,355.2,319.92,355.2,347.28,355.2z"/>
	<path d="M314.39,377.01c6.19,0,12.39,0,18.58,0c0.28,0,0.56,0,0.84,0.03c1.07,0.12,1.81,0.64,1.97,1.76
		c0.13,0.98-0.59,1.85-1.73,2.11c-0.42,0.1-0.87,0.11-1.31,0.11c-12.27,0.01-24.53,0.01-36.79,0c-0.47,0-0.97-0.04-1.41-0.2
		c-0.92-0.35-1.6-0.97-1.46-2.07c0.14-1.08,0.91-1.53,1.9-1.7c0.31-0.05,0.64-0.04,0.96-0.04
		C302.08,377.01,308.24,377.01,314.39,377.01z"/>
	<path d="M314.39,415.47c-6.15,0-12.3,0-18.46,0c-1.84,0-2.89-0.73-2.87-1.98c0.02-1.26,1.21-2.04,3.01-2.04
		c12.18,0.01,24.37,0,36.55,0.01c0.52,0,1.05,0.01,1.54,0.14c1.04,0.27,1.7,0.95,1.6,2.07c-0.1,1.06-0.82,1.6-1.84,1.74
		c-0.31,0.04-0.64,0.05-0.96,0.05C326.77,415.48,320.58,415.47,314.39,415.47z"/>
	<path d="M314.39,398.23c-6.11,0-12.23,0-18.34,0c-1.86,0-3.04-0.79-3.01-2.02c0.02-1.19,1.18-1.96,2.96-1.96
		c12.27,0,24.54,0,36.8,0.01c1.85,0,3.04,0.8,3.02,2.01c-0.03,1.2-1.21,1.95-3.08,1.95C326.62,398.22,320.5,398.22,314.39,398.23
		C314.39,398.22,314.39,398.23,314.39,398.23z"/>
	<path d="M290.21,413.54c0,3.44-3.24,6.69-6.7,6.69c-3.46,0-6.68-3.23-6.68-6.71c0-3.65,3.09-6.7,6.76-6.67
		C287.15,406.88,290.2,409.95,290.21,413.54z M286.23,413.63c0.02-1.58-1.24-2.91-2.72-2.89c-1.42,0.02-2.75,1.36-2.76,2.78
		c-0.01,1.41,1.33,2.71,2.79,2.7C285.09,416.22,286.22,415.13,286.23,413.63z"/>
	<path d="M290.2,378.95c-0.02,3.65-3.13,6.71-6.75,6.68c-3.61-0.04-6.63-3.09-6.62-6.69c0.01-3.48,3.24-6.7,6.69-6.69
		C286.98,372.26,290.22,375.51,290.2,378.95z M283.55,376.25c-1.46-0.01-2.8,1.28-2.8,2.69c0,1.42,1.33,2.77,2.75,2.79
		c1.49,0.03,2.75-1.3,2.73-2.88C286.22,377.35,285.1,376.26,283.55,376.25z"/>
	<path d="M290.21,396.28c-0.02,3.38-3.08,6.53-6.47,6.66c-3.36,0.12-6.6-2.73-6.9-6.08c-0.11-1.23,0.56-2.26,1.61-2.47
		c0.99-0.2,1.79,0.46,2.21,1.72c0.23,0.67,0.45,1.41,0.89,1.93c0.75,0.89,1.79,1.19,2.93,0.76c1.08-0.41,1.78-1.49,1.76-2.62
		c-0.02-1.14-0.75-2.15-1.87-2.53c-0.41-0.14-0.86-0.19-1.27-0.33c-0.88-0.29-1.45-0.9-1.44-1.84c0.01-1.01,0.65-1.75,1.59-1.8
		c0.96-0.06,1.99,0.11,2.89,0.46C288.46,391.03,290.22,393.8,290.21,396.28z"/>
</g>
</svg>
